<?xml version="1.0" standalone="no"?>
<!DOCTYPE svg PUBLIC "-//W3C//DTD SVG 20010904//EN"
 "http://www.w3.org/TR/2001/REC-SVG-20010904/DTD/svg10.dtd">
<svg version="1.0" xmlns="http://www.w3.org/2000/svg"
 width="503.000000pt" height="122.000000pt" viewBox="0 0 503.000000 122.000000"
 preserveAspectRatio="xMidYMid meet">

<g transform="translate(0.000000,122.000000) scale(0.100000,-0.100000)"
fill="#000000" stroke="none">
<path d="M330 945 l0 -35 95 0 95 0 0 -300 0 -300 40 0 40 0 0 300 0 300 95 0
95 0 0 35 0 35 -230 0 -230 0 0 -35z"/>
<path d="M2880 645 l0 -335 40 0 40 0 0 150 0 150 120 0 120 0 0 35 0 35 -120
0 -120 0 0 115 0 115 130 0 130 0 0 35 0 35 -170 0 -170 0 0 -335z"/>
<path d="M915 789 c-88 -33 -146 -124 -148 -231 -3 -130 52 -223 145 -249 54
-14 153 -6 202 17 31 15 36 23 36 51 0 18 -2 33 -5 33 -3 0 -25 -10 -48 -21
-113 -58 -240 -2 -249 111 l-3 35 168 3 167 2 0 53 c0 69 -38 148 -86 178 -40
25 -134 34 -179 18z m141 -75 c25 -17 44 -55 44 -89 l0 -25 -130 0 -130 0 15
37 c39 92 126 125 201 77z"/>
<path d="M1400 794 c-74 -25 -90 -37 -90 -71 0 -18 2 -33 5 -33 3 0 25 10 48
21 55 29 138 31 166 5 19 -17 48 -93 39 -102 -2 -2 -48 -10 -101 -18 -149 -22
-201 -63 -201 -156 0 -59 23 -96 75 -122 65 -34 140 -20 197 35 l32 31 0 -37
c0 -36 1 -37 35 -37 l35 0 0 188 c0 220 -7 243 -80 280 -42 21 -120 29 -160
16z m163 -297 c-3 -82 -51 -130 -130 -130 -38 0 -50 5 -70 27 -29 34 -29 68 0
101 17 20 39 29 97 40 104 19 105 18 103 -38z"/>
<path d="M1950 789 c-14 -6 -40 -24 -57 -42 l-33 -31 0 37 c0 36 -1 37 -35 37
l-35 0 0 -240 0 -240 35 0 35 0 0 148 c0 166 8 207 47 244 35 32 64 39 108 27
60 -17 69 -48 73 -246 l4 -173 33 0 33 0 4 163 c3 185 14 217 81 250 31 16 42
17 72 7 63 -21 70 -42 73 -242 l4 -178 40 0 41 0 -5 184 c-4 153 -8 190 -24
222 -25 49 -61 75 -117 81 -60 7 -110 -11 -147 -54 -17 -19 -32 -34 -34 -32
-1 2 -9 16 -18 30 -31 49 -116 72 -178 48z"/>
<path d="M3464 786 c-61 -19 -102 -54 -130 -113 -23 -47 -26 -62 -23 -142 4
-80 7 -94 34 -133 47 -66 104 -93 195 -93 61 0 83 5 120 25 118 66 153 243 75
376 -47 80 -163 114 -271 80z m166 -75 c46 -33 64 -78 65 -161 0 -83 -18 -126
-67 -163 -37 -28 -129 -28 -166 0 -54 40 -72 79 -72 160 0 79 12 113 53 152
46 42 135 48 187 12z"/>
<path d="M4594 784 c-17 -8 -40 -32 -52 -52 l-22 -37 0 48 0 47 -40 0 -40 0 0
-240 0 -240 39 0 39 0 4 163 c3 131 7 168 21 194 22 42 70 67 114 60 33 -6 33
-5 33 34 0 37 -1 39 -32 39 -18 0 -47 -7 -64 -16z"/>
<path d="M3892 603 c3 -205 10 -231 69 -276 58 -43 169 -30 221 26 l28 29 0
-36 c0 -35 1 -36 40 -36 l40 0 0 240 0 240 -39 0 -40 0 -3 -169 c-3 -190 -9
-209 -81 -244 -50 -25 -110 -9 -137 36 -18 28 -20 51 -20 205 l0 172 -41 0
-41 0 4 -187z"/>
</g>
</svg>
